<svg xmlns="http://www.w3.org/2000/svg" viewBox="0 0 1440 320">
  <path fill="#2B2D42" fill-opacity="1" d="M0,32L30,69.3C60,107,120,181,180,186.7C240,192,300,128,360,101.3C420,75,480,85,540,112C600,139,660,181,720,176C780,171,840,117,900,112C960,107,1020,149,1080,144C1140,139,1200,85,1260,64C1320,43,1380,53,1410,58.7L1440,64L1440,320L1410,320C1380,320,1320,320,1260,320C1200,320,1140,320,1080,320C1020,320,960,320,900,320C840,320,780,320,720,320C660,320,600,320,540,320C480,320,420,320,360,320C300,320,240,320,180,320C120,320,60,320,30,320L0,320Z"></path>
</svg>